<?xml version="1.0" standalone="no"?>
<!DOCTYPE svg PUBLIC "-//W3C//DTD SVG 20010904//EN"
 "http://www.w3.org/TR/2001/REC-SVG-20010904/DTD/svg10.dtd">
<svg version="1.0" xmlns="http://www.w3.org/2000/svg"
 width="325.000000pt" height="325.000000pt" viewBox="0 0 325.000000 325.000000"
 preserveAspectRatio="xMidYMid meet">
<metadata>
Created by potrace 1.11, written by Peter Selinger 2001-2013
</metadata>
<g transform="translate(0.000000,325.000000) scale(0.100000,-0.100000)"
fill="#000000" stroke="none">
<path d="M1596 3222 c-10 -29 -60 -72 -102 -87 -28 -10 -77 -12 -173 -9 -74 2
-142 6 -150 9 -25 8 -116 -19 -155 -46 -19 -13 -45 -42 -58 -64 -22 -38 -23
-50 -23 -240 l0 -200 679 -2 678 -1 -4 191 c-4 207 -9 229 -67 290 -56 61 -69
63 -361 57 -131 -2 -230 43 -230 105 0 21 -27 19 -34 -3z m84 -103 c56 -29
131 -38 274 -33 77 3 155 3 171 0 28 -6 104 -65 106 -83 0 -5 3 -17 7 -28 3
-11 7 -95 9 -186 4 -154 3 -167 -14 -171 -10 -2 -297 -3 -638 -3 l-620 1 0
184 c0 178 1 186 23 218 13 18 42 42 65 55 40 21 52 22 232 19 l190 -3 58 29
c46 23 54 25 40 10 -10 -11 -36 -29 -58 -41 -41 -21 -81 -23 -310 -18 -110 3
-165 -17 -202 -72 -20 -29 -22 -45 -23 -177 -1 -80 -1 -153 0 -163 0 -16 34
-17 623 -15 l622 3 -2 142 c-1 166 -12 200 -81 248 l-44 30 -176 0 c-98 1
-191 5 -209 9 -32 8 -75 42 -103 81 -13 18 -12 18 10 -1 14 -12 36 -27 50 -35z
m38 -75 c39 -8 42 -20 5 -18 -36 2 -73 -12 -100 -38 -13 -12 -23 -16 -23 -10
0 14 -60 53 -71 46 -4 -2 -10 0 -13 4 -3 5 10 16 29 25 27 13 33 13 29 2 -8
-20 14 -55 34 -55 41 0 57 51 22 72 -11 7 -20 19 -20 26 0 8 15 1 38 -17 20
-17 52 -33 70 -37z m-520 -11 c-10 -2 -18 -10 -18 -17 0 -7 -10 -12 -22 -11
-34 3 -76 -22 -98 -57 -22 -36 -17 -52 11 -43 17 6 17 3 -6 -31 -14 -20 -26
-44 -26 -53 -4 -55 22 -105 64 -122 33 -14 100 -14 125 0 14 7 18 5 18 -8 0
-15 -13 -17 -111 -16 l-110 0 -1 110 c-2 139 2 166 31 198 26 31 85 56 130 55
17 0 22 -2 13 -5z m185 -5 c58 -2 65 -5 50 -16 -10 -7 -24 -9 -33 -5 -20 9
-89 10 -115 1 -13 -5 -28 -1 -45 13 l-25 20 50 -5 c28 -3 81 -7 118 -8z m746
-16 c60 -36 66 -53 69 -202 l3 -135 -55 -1 -56 -2 39 20 c62 30 79 94 41 156
-42 69 -145 76 -183 13 -23 -39 -22 -63 5 -96 19 -24 26 -27 66 -22 46 5 62
18 62 53 0 24 -44 69 -59 60 -5 -4 -12 -2 -16 4 -7 11 34 14 60 4 8 -4 22 -19
31 -35 13 -25 13 -33 0 -64 -23 -55 -77 -66 -135 -29 -33 22 -39 30 -106 141
-30 50 -71 105 -90 120 l-35 29 32 0 c18 -1 33 -5 33 -11 0 -5 12 -26 26 -45
15 -19 39 -59 54 -89 l27 -54 26 33 c32 41 77 60 141 60 49 0 50 1 40 23 -12
27 -58 57 -87 57 -11 0 -25 7 -32 15 -13 16 -41 15 -62 -2 -15 -13 -84 -7
-108 9 -13 8 -13 9 0 5 9 -3 33 -1 55 4 65 13 177 3 214 -19z m-884 -42 c19
-21 45 -27 45 -11 0 5 6 11 14 14 11 4 9 -5 -6 -31 -12 -20 -23 -39 -24 -41
-2 -2 -10 4 -19 13 -27 26 -68 43 -102 42 -17 0 -29 2 -26 7 2 4 22 7 44 7 21
0 39 5 39 10 0 16 15 12 35 -10z m134 -2 c-11 -13 -34 -48 -50 -78 -26 -49
-30 -42 -9 16 10 26 59 84 71 84 6 0 0 -10 -12 -22z m171 7 c35 -18 49 -42 43
-74 -9 -59 -81 -83 -119 -40 -19 22 -19 22 3 10 38 -20 82 -14 93 13 5 13 7
32 5 42 -2 11 -4 22 -4 26 -1 11 -62 24 -92 20 -33 -5 -59 -52 -54 -97 5 -36
46 -72 83 -72 43 1 82 -12 83 -28 1 -8 2 -21 3 -27 3 -17 -13 -38 -28 -38 -6
0 -4 5 4 10 20 12 1 45 -26 45 -26 1 -85 33 -107 59 -10 11 -21 33 -24 48 -7
35 -21 36 -33 3 -5 -14 -12 -25 -14 -25 -9 0 6 33 30 69 44 66 98 85 154 56z
m250 -17 c23 -24 28 -38 23 -57 -7 -32 -30 -78 -42 -85 -5 -3 -1 10 9 29 21
41 16 76 -14 104 -23 21 -71 30 -96 17 -8 -4 -6 0 4 8 34 27 83 20 116 -16z
m214 16 c4 -10 13 -13 25 -9 10 3 29 1 42 -4 21 -9 20 -10 -16 -10 -23 -1 -58
-12 -83 -26 -39 -22 -43 -23 -49 -7 -3 9 -13 25 -21 35 -23 26 -6 33 29 13 26
-15 33 -16 40 -5 5 8 9 17 9 22 0 13 18 7 24 -9z m-363 -41 c-12 -20 -14 -14
-5 12 4 9 9 14 11 11 3 -2 0 -13 -6 -23z m-521 -13 c0 -5 -8 -10 -17 -10 -15
0 -16 2 -3 10 19 12 20 12 20 0z m94 -23 c15 -11 35 -35 43 -54 12 -31 12 -38
-2 -59 -33 -50 -107 -71 -154 -43 -33 20 -39 46 -22 92 12 30 76 56 94 38 8
-8 5 -11 -11 -11 -12 0 -24 1 -26 3 -2 1 -13 -7 -25 -17 -37 -34 -20 -88 31
-101 30 -8 82 16 97 43 27 51 -42 133 -102 123 -5 -1 -6 3 -3 8 8 12 45 2 80
-22z m434 -12 c13 -29 57 -43 83 -27 15 10 17 9 13 -3 -8 -19 -87 -21 -102 -2
-15 18 -25 57 -14 57 5 0 14 -11 20 -25z m213 -35 c25 -47 27 -51 59 -89 11
-13 20 -27 20 -31 0 -4 16 -15 35 -26 19 -10 35 -21 35 -24 0 -3 -47 -6 -104
-6 -57 1 -102 4 -100 7 2 4 32 7 67 7 108 -1 106 -1 76 25 -39 33 -129 170
-129 194 0 12 17 -11 41 -57z m-417 -83 c3 3 6 1 6 -5 0 -7 -9 -12 -20 -12
-11 0 -23 -6 -25 -12 -3 -8 -24 -13 -49 -14 l-43 -1 33 44 c19 25 34 49 34 55
0 6 13 -5 29 -25 15 -20 31 -34 35 -30z m-104 49 c0 -2 -8 -10 -17 -17 -16
-13 -17 -12 -4 4 13 16 21 21 21 13z m529 -58 c17 -28 19 -38 9 -38 -8 0 -20
6 -27 13 -10 10 -15 8 -26 -6 -13 -18 -14 -18 -25 3 -7 12 -18 19 -26 16 -25
-9 -15 13 19 44 36 32 38 31 76 -32z m-136 35 c-13 -8 -23 -22 -23 -30 0 -10
-4 -11 -19 -3 -25 13 -27 13 -46 -6 -13 -13 -13 -19 -3 -33 12 -14 11 -15 -4
-2 -10 7 -18 24 -18 36 0 37 12 43 115 52 19 1 18 0 -2 -14z m49 -97 c13 -19
9 -21 -39 -20 -59 2 -58 1 -38 20 9 9 14 22 11 29 -5 15 54 -12 66 -29z m-270
-6 c4 0 8 -3 8 -8 0 -4 -27 -8 -60 -8 l-60 0 21 23 c28 28 61 34 73 11 5 -10
13 -18 18 -18z m-132 -8 c0 -5 -14 -9 -30 -10 -17 0 -28 4 -25 9 8 11 55 12
55 1z m250 0 c0 -4 -9 -8 -20 -8 -11 0 -20 4 -20 8 0 4 9 8 20 8 11 0 20 -4
20 -8z m43 -9 c-7 -2 -19 -2 -25 0 -7 3 -2 5 12 5 14 0 19 -2 13 -5z"/>
<path d="M525 2541 c-72 -18 -137 -73 -152 -129 -4 -15 -6 -74 -6 -132 2 -96
2 -192 2 -230 -1 -9 -13 -40 -27 -70 -19 -39 -36 -59 -59 -70 -41 -19 -41 -31
0 -50 19 -9 42 -33 57 -60 23 -42 25 -54 24 -165 -1 -66 -4 -140 -7 -165 -9
-72 17 -147 69 -197 25 -24 60 -46 81 -52 48 -12 391 -13 398 -1 5 8 7 1123 2
1265 l-2 60 -175 2 c-96 0 -188 -2 -205 -6z m342 -35 c3 -2 6 -286 6 -630 2
-550 0 -626 -13 -627 -90 -5 -313 -2 -343 5 -78 18 -135 119 -123 217 3 27 6
101 7 163 0 118 -11 168 -50 211 -30 34 -37 52 -11 30 70 -58 89 -109 85 -226
-9 -234 -7 -251 23 -302 28 -50 77 -77 136 -77 28 -1 95 -2 149 -3 54 -1 103
0 108 4 5 3 8 252 7 615 l-3 609 -105 3 c-186 6 -251 -13 -292 -84 -23 -40
-35 -135 -26 -204 19 -136 7 -214 -43 -272 l-28 -33 27 55 c27 54 27 57 24
238 -2 195 2 216 51 263 46 44 107 55 284 52 69 -1 127 -4 130 -7z m-62 -45
c6 -1 11 -25 11 -53 l2 -53 -15 31 c-41 85 -173 85 -208 -1 -41 -99 68 -193
140 -121 39 39 10 116 -44 116 -31 0 -49 -16 -56 -50 -7 -35 -15 -37 -15 -4 0
42 25 72 65 80 69 13 114 -51 81 -114 -20 -39 -100 -108 -104 -90 -1 7 -16 21
-32 30 -39 22 -62 80 -56 141 3 39 1 47 -12 47 -36 -1 -72 -48 -72 -94 0 -16
-6 -26 -15 -26 -19 0 -19 -29 -2 -55 14 -20 12 -105 -2 -105 -9 0 -8 -3 -15
100 -6 89 9 140 54 184 29 30 35 31 133 36 89 4 116 5 162 1z m-261 -162 c3
-17 15 -44 26 -59 l21 -29 -30 -16 c-43 -21 -55 -19 -37 7 22 31 20 45 -6 52
-22 6 -22 7 -4 21 12 9 17 22 13 35 -3 11 -2 20 3 20 4 0 10 -14 14 -31z m273
-103 c-1 -58 -4 -103 -9 -100 -5 3 -6 32 -2 65 4 39 2 64 -5 73 -9 10 -9 20 0
40 7 14 13 26 14 26 1 0 2 -47 2 -104z m-42 24 c-3 -5 -20 -19 -38 -30 -32
-22 -32 -22 3 9 37 32 45 37 35 21z m-140 -36 c-40 -30 -128 -85 -131 -81 -7
7 29 34 86 65 61 34 75 39 45 16z m51 -27 c-10 -7 -34 -22 -53 -35 -20 -13
-37 -21 -40 -18 -5 4 97 66 107 65 3 0 -3 -6 -14 -12z m76 -19 c-7 -7 -7 -16
1 -30 10 -15 9 -20 -3 -28 -8 -5 -16 -14 -16 -20 -1 -5 -2 -15 -3 -22 0 -7
-17 5 -36 27 -20 21 -34 39 -32 41 21 21 93 61 96 53 2 -6 -1 -15 -7 -21z
m-282 -68 c-15 -28 -20 -23 -13 13 4 18 9 25 15 19 6 -6 6 -18 -2 -32z m135
16 c35 -8 53 -21 80 -59 17 -23 30 -49 31 -59 2 -30 13 -48 29 -48 9 0 14 -4
11 -9 -9 -13 -57 -6 -67 10 -5 8 -9 29 -9 47 0 64 -34 101 -92 102 -35 0 -76
-25 -79 -47 0 -5 -2 -18 -3 -31 -2 -13 6 -34 16 -48 11 -13 15 -24 9 -24 -19
0 -44 65 -37 95 9 37 64 88 85 80 9 -4 21 -8 26 -9z m201 -65 c-1 -58 -1 -59
-19 -40 -10 11 -22 17 -28 14 -12 -8 -11 -1 3 32 14 30 30 52 39 53 3 0 5 -27
5 -59z m-166 -22 c3 -13 4 -34 2 -47 -6 -29 -50 -52 -77 -41 -18 7 -18 8 4 8
50 2 81 66 49 100 -11 11 -10 13 2 9 8 -2 17 -15 20 -29z m-186 -20 c-3 -5 6
-30 21 -55 29 -49 29 -72 0 -28 -12 19 -23 25 -41 21 -14 -2 -23 -2 -22 2 2 3
10 23 17 43 8 20 18 35 23 32 5 -3 6 -10 2 -15z m352 -90 c1 -28 -2 -36 -8
-26 -4 9 -6 26 -4 39 8 42 11 39 12 -13z m-409 -4 c0 -8 -4 -15 -9 -15 -10 0
-11 14 -1 23 9 10 10 9 10 -8z m231 -43 c6 -9 12 -27 11 -41 l-1 -26 -11 27
c-10 26 -44 48 -75 48 -13 0 -14 2 -4 9 19 11 65 2 80 -17z m126 22 c26 -10
18 -25 -9 -18 -25 6 -31 -4 -26 -44 1 -7 -5 -15 -14 -18 -8 -3 -15 -14 -15
-24 0 -10 -7 -24 -17 -31 -15 -13 -15 -12 -5 8 7 12 12 38 12 57 0 23 7 43 20
56 21 21 29 23 54 14z m-305 -19 c18 5 19 4 8 -25 -6 -16 -14 -30 -17 -30 -3
1 -12 16 -21 36 -12 24 -13 31 -3 23 7 -6 22 -8 33 -4z m56 -70 c-3 -35 30
-75 62 -75 18 0 24 -4 20 -15 -4 -9 11 -24 48 -45 77 -44 68 -47 -14 -5 -101
50 -145 103 -127 150 8 23 15 18 11 -10z m301 -81 c1 -56 -2 -91 -8 -88 -5 3
-6 24 -3 47 6 33 4 43 -13 56 -26 21 -39 61 -19 61 8 0 18 7 21 16 13 34 21 0
22 -92z m-176 61 c-7 -8 -17 -15 -22 -15 -11 0 14 29 26 30 5 0 3 -7 -4 -15z
m116 -68 c7 -4 11 -14 8 -22 -4 -8 -1 -28 4 -45 10 -29 1 -42 -14 -19 -3 6
-26 23 -50 38 -43 28 -43 28 -20 41 13 7 30 24 37 38 l14 25 3 -24 c2 -13 10
-27 18 -32z m-161 -78 c31 -14 44 -25 33 -27 -26 -5 -94 34 -119 69 l-22 31
-12 -23 c-12 -21 -13 -20 -13 20 l-1 42 42 -44 c23 -24 65 -55 92 -68z m35 87
c0 -3 -4 -8 -10 -11 -5 -3 -10 -1 -10 4 0 6 5 11 10 11 6 0 10 -2 10 -4z
m-158 -176 c-13 -23 -14 -33 -5 -52 7 -12 15 -34 18 -48 11 -40 33 -68 66 -86
38 -19 44 -14 31 25 l-11 30 34 -33 c35 -36 85 -49 127 -33 30 11 68 47 68 64
0 7 4 13 8 13 5 0 8 -21 7 -47 l-1 -48 -138 -3 -139 -2 -38 39 c-33 35 -38 48
-43 103 -4 35 -4 72 -2 83 2 11 5 40 6 65 l1 45 14 -43 c12 -38 11 -47 -3 -72z
m106 40 c13 0 13 -2 0 -17 -27 -31 -45 -77 -43 -110 0 -18 -3 -33 -7 -33 -4 0
-8 18 -8 39 0 26 -5 41 -16 45 -12 5 -10 10 12 29 26 23 27 25 11 48 -25 35
-21 43 9 20 15 -12 34 -21 42 -21z m156 -43 c42 -55 36 -127 -12 -150 -59 -28
-108 7 -103 76 0 10 5 16 10 13 5 -3 7 -14 4 -24 -6 -23 29 -54 62 -54 46 0
69 56 43 105 -21 40 -37 50 -74 44 -37 -6 -48 9 -11 16 47 9 57 6 81 -26z m82
-57 l2 -55 -10 45 c-6 25 -14 50 -18 55 -6 7 -2 11 8 11 14 0 17 -11 18 -56z
m-222 25 c-9 -14 -18 -25 -21 -25 -5 0 5 18 20 38 17 22 18 13 1 -13z m-17
-64 c0 -11 -5 -18 -9 -15 -4 3 -5 11 -1 19 7 21 12 19 10 -4z"/>
<path d="M930 1881 l0 -670 683 2 682 2 0 665 0 665 -682 3 -683 2 0 -669z
m1326 2 c0 -442 -3 -633 -10 -634 -36 -4 -1276 -3 -1277 1 0 3 -2 286 -2 630
l-2 625 24 5 c14 3 304 5 646 5 l621 0 0 -632z"/>
<path d="M1063 2492 l-63 -3 1 -609 c1 -553 3 -609 18 -612 9 -2 132 -3 274
-2 303 1 289 -4 293 103 3 98 -15 116 -115 113 -53 -2 -112 36 -140 90 -20 39
-8 139 27 223 89 213 239 534 258 554 2 2 8 -9 14 -25 6 -16 67 -159 135 -319
149 -349 157 -392 86 -468 -37 -41 -68 -54 -136 -56 -82 -3 -89 -13 -88 -108
2 -61 6 -80 19 -90 14 -10 87 -13 301 -13 l283 0 -2 607 -3 608 -330 2 c-181
2 -429 4 -550 6 -121 1 -248 1 -282 -1z m1123 -45 c3 -3 6 -509 4 -1023 l0
-122 -262 2 -263 1 -2 50 c-5 96 -9 93 124 93 137 0 182 6 220 26 38 19 78 56
93 85 17 33 19 126 5 187 -15 63 -266 674 -278 674 -4 0 -10 -8 -14 -17 -6
-20 -47 -119 -72 -176 l-17 -38 -49 116 c-27 64 -52 118 -57 121 -4 3 -34 -47
-65 -111 -57 -115 -58 -115 -75 -93 -10 13 -18 26 -18 30 0 15 -74 168 -80
168 -4 0 -17 -22 -28 -49 -12 -26 -34 -77 -50 -112 -48 -104 -142 -328 -179
-422 -66 -171 -32 -298 94 -357 57 -27 94 -33 213 -35 52 0 101 -2 108 -3 8
-1 12 -21 12 -56 0 -93 20 -86 -261 -86 -137 0 -249 3 -250 8 -3 20 -4 1138
-2 1144 4 8 1141 3 1149 -5z m-756 -201 l42 -94 -75 -169 c-96 -216 -106 -244
-111 -330 -4 -62 19 -119 60 -152 l29 -23 -50 6 c-79 10 -147 48 -175 97 -45
82 -28 176 80 414 10 22 34 78 53 125 45 107 96 220 101 220 2 0 22 -42 46
-94z m408 87 c-1 -5 7 -26 17 -48 10 -22 19 -45 20 -50 2 -6 12 -31 23 -55 11
-25 45 -108 77 -185 31 -77 63 -152 71 -167 8 -16 13 -28 11 -28 -3 0 1 -21 9
-47 22 -72 18 -144 -9 -184 -29 -43 -92 -78 -152 -86 l-46 -5 31 44 c24 34 33
59 37 104 5 71 -3 100 -91 298 -96 219 -93 203 -57 290 17 41 35 85 41 100 8
23 23 38 18 19z"/>
<path d="M2325 1883 l0 -668 185 -2 c102 -1 202 3 223 8 58 15 111 69 131 133
13 42 16 74 11 138 -12 164 -7 247 16 294 21 45 61 84 85 84 27 0 13 26 -18
35 -75 23 -101 113 -92 324 6 163 0 191 -56 251 -52 56 -108 68 -310 70 l-175
1 0 -668z m333 626 c115 -5 182 -81 175 -197 -14 -243 -5 -319 50 -397 l21
-29 -26 19 c-15 11 -37 42 -49 68 -24 51 -27 98 -17 262 7 100 -10 163 -56
208 -45 45 -97 57 -250 57 l-126 0 0 -609 c0 -475 3 -611 13 -618 21 -16 300
-7 335 11 74 38 90 94 84 302 -4 149 -2 164 18 207 32 68 55 81 26 14 -24 -53
-25 -62 -21 -238 3 -182 3 -185 -22 -231 -19 -35 -38 -53 -71 -69 -45 -22 -70
-24 -334 -20 l-48 1 0 628 c0 346 2 631 4 633 4 4 198 3 294 -2z m42 -67 c55
-27 79 -85 76 -180 -5 -119 -5 -122 -18 -122 -6 0 -9 3 -6 6 3 3 2 21 -4 40
-7 27 -6 38 6 50 21 20 20 51 0 62 -9 5 -15 12 -15 15 4 32 -3 53 -28 78 -44
44 -57 39 -52 -22 2 -29 -2 -56 -8 -62 -8 -8 -10 -3 -5 20 23 118 -170 174
-215 62 -8 -21 -10 -17 -10 24 l-1 47 123 0 c96 0 129 -4 157 -18z m-133 -43
c35 -13 43 -26 41 -69 0 -27 -2 -29 -5 -10 -7 36 -32 60 -64 60 -37 0 -59 -24
-59 -63 0 -37 6 -47 38 -69 30 -20 89 -8 115 24 l18 23 -11 -23 c-7 -13 -25
-31 -41 -40 -16 -10 -29 -19 -29 -22 0 -3 32 -20 71 -39 39 -19 76 -42 82 -53
7 -10 19 -18 28 -18 11 0 16 -10 17 -32 1 -29 0 -31 -10 -13 -17 31 -46 53
-144 110 -49 30 -102 66 -117 81 -49 48 -46 133 5 154 30 12 32 12 65 -1z
m141 -84 c-4 -17 0 -29 11 -35 14 -9 13 -12 -8 -28 -23 -19 -23 -20 -6 -46 23
-35 15 -41 -26 -19 -46 24 -45 23 -33 31 17 10 44 68 46 97 1 14 6 25 11 25 5
0 7 -11 5 -25z m-278 -85 c-8 -34 -8 -33 -9 15 0 34 3 45 9 35 4 -9 5 -31 0
-50z m100 -68 c0 -2 -18 11 -40 28 -22 17 -40 36 -40 41 0 4 18 -8 40 -28 22
-21 40 -39 40 -41z m-100 -22 c0 -22 -2 -40 -4 -40 -2 0 -6 18 -8 40 -2 22 0
40 4 40 5 0 8 -18 8 -40z m97 -72 c-26 -33 -33 -37 -35 -22 -2 11 -11 24 -19
31 -13 10 -14 15 -4 27 7 9 9 21 5 28 -20 32 -8 34 37 7 l49 -31 -33 -40z m97
52 c71 -36 106 -74 106 -115 0 -19 -4 -37 -10 -40 -6 -3 -7 1 -4 10 8 21 -14
73 -37 85 -10 6 -35 10 -56 11 -29 0 -33 2 -18 8 11 5 23 7 27 5 4 -3 9 0 12
4 3 5 -14 19 -38 31 -24 12 -50 29 -57 39 -13 16 -12 16 6 2 11 -8 42 -26 69
-40z m-165 -91 c11 -21 16 -37 11 -34 -13 8 -39 -5 -43 -23 -3 -10 -5 11 -6
46 -1 71 8 73 38 11z m91 -8 c-5 -11 -10 -35 -10 -53 0 -18 -4 -38 -8 -44 -11
-18 -72 -22 -72 -5 0 5 9 7 20 4 25 -7 36 18 20 46 -8 17 -8 21 3 21 8 0 22
11 31 25 19 29 31 34 16 6z m51 -5 c-27 -33 4 -96 48 -97 23 0 24 -1 6 -8 -40
-16 -75 13 -75 64 0 17 5 36 12 43 17 17 23 15 9 -2z m227 -109 c13 -14 13
-20 2 -30 -9 -8 -11 -8 -6 0 9 16 -23 45 -47 41 -33 -5 -44 -33 -23 -57 11
-12 27 -21 37 -21 16 0 16 -2 2 -32 l-16 -32 -13 37 c-7 21 -20 45 -29 54 -15
14 -14 17 5 38 11 12 24 39 27 60 l6 38 20 -39 c11 -21 26 -47 35 -57z m-401
-24 c-3 -10 -5 -4 -5 12 0 17 2 24 5 18 2 -7 2 -21 0 -30z m91 -29 c16 -11 22
-25 22 -54 0 -46 39 -97 80 -104 27 -4 89 17 91 31 1 4 3 21 5 37 5 42 14 45
14 3 0 -29 -7 -43 -36 -69 -44 -41 -66 -54 -59 -36 3 8 -12 21 -37 33 -25 12
-49 33 -58 50 -8 17 -18 32 -22 33 -5 2 -8 12 -8 22 0 33 -12 50 -34 50 -17 0
-18 2 -6 10 20 13 22 13 48 -6z m184 -11 c10 -9 18 -20 18 -25 0 -4 -9 1 -20
12 -20 20 -56 26 -76 12 -23 -15 -35 -51 -24 -71 15 -29 12 -39 -5 -17 -19 25
-19 56 1 84 19 27 78 30 106 5z m-240 -99 c-2 -13 -13 -29 -23 -35 -17 -9 -19
-6 -19 41 l0 50 24 -15 c17 -11 22 -22 18 -41z m96 -78 c-2 -1 -19 -13 -38
-27 -59 -43 -62 -44 -48 -14 8 19 9 28 0 37 -8 8 -7 14 6 24 9 7 18 17 18 23
1 6 2 13 3 15 0 3 15 -9 31 -26 17 -17 30 -31 28 -32z m216 -56 c10 -142 10
-141 4 -175 -9 -49 -24 -78 -53 -105 -25 -24 -33 -25 -166 -28 l-139 -2 1 72
c1 61 2 67 9 38 9 -38 59 -89 90 -91 11 -1 26 -2 33 -3 20 -4 64 22 87 51 22
28 22 28 15 3 -12 -41 -11 -45 10 -42 37 6 70 38 80 79 6 22 15 46 21 54 14
18 10 44 -10 64 -12 12 -13 21 -6 35 12 23 13 90 1 109 -6 9 -5 21 2 32 6 10
12 17 13 16 1 -1 5 -49 8 -107z m-344 35 c0 -14 -4 -25 -9 -25 -4 0 -6 11 -3
25 2 14 6 25 8 25 2 0 4 -11 4 -25z m300 21 c0 -17 -57 -61 -99 -77 -28 -10
-51 -17 -51 -14 0 3 26 18 58 34 32 16 64 36 71 45 13 16 21 20 21 12z m-24
-102 c-19 -14 -19 -15 9 -44 24 -25 26 -30 12 -36 -11 -4 -17 -18 -18 -43 l0
-36 -13 48 c-7 26 -23 58 -35 71 l-22 24 38 19 c42 21 59 19 29 -3z m-110 -30
c19 -9 41 -29 49 -45 22 -41 18 -49 -5 -12 -10 17 -27 36 -37 41 -17 8 -29 8
-74 4 -9 -1 -24 -17 -33 -35 -28 -59 -3 -107 56 -107 29 0 48 23 48 59 0 12 5
21 10 21 13 0 13 -21 0 -55 -11 -29 -62 -55 -92 -47 -56 14 -63 110 -12 163
32 33 43 35 90 13z m-164 -54 c-6 -41 -12 -38 -12 6 0 19 4 33 8 30 5 -3 7
-19 4 -36z m235 -72 c-3 -7 -5 -2 -5 12 0 14 2 19 5 13 2 -7 2 -19 0 -25z"/>
<path d="M937 1183 c-2 -4 -4 -93 -3 -198 1 -182 3 -192 26 -235 44 -79 124
-115 240 -109 36 2 117 3 181 4 110 0 118 -1 157 -27 23 -16 50 -44 60 -64
l19 -36 13 31 c7 18 27 43 44 55 53 40 102 50 226 47 258 -6 264 -5 327 59 47
48 56 95 59 292 2 157 0 177 -14 180 -32 9 -1330 9 -1335 1z m1313 -187 c0
-90 -5 -175 -11 -197 -7 -21 -29 -55 -51 -76 l-39 -38 -198 0 -198 -1 -64 -31
-64 -32 37 33 c54 47 96 57 218 50 140 -7 188 -5 232 8 42 12 95 59 111 98 11
28 18 292 8 309 -5 7 -197 11 -611 11 -333 1 -611 1 -618 0 -11 0 -13 -33 -10
-162 3 -187 11 -209 92 -248 48 -23 92 -25 259 -15 125 8 189 -9 241 -62 43
-45 40 -55 -6 -19 -71 53 -95 58 -297 54 -183 -3 -187 -3 -230 22 -74 42 -81
66 -81 275 l0 181 640 -1 640 0 0 -159z m-1149 77 c-52 -25 -61 -40 -61 -105
0 -27 8 -47 30 -71 35 -40 38 -52 9 -37 -33 18 -40 7 -21 -30 18 -33 78 -73
95 -63 4 2 20 -5 35 -17 l27 -22 -46 5 c-57 6 -104 29 -126 64 -14 20 -18 52
-19 157 -1 72 0 134 1 137 2 3 31 5 64 5 l61 0 -49 -23z m145 2 c10 -21 10
-22 -15 -9 -14 7 -37 17 -51 22 -22 8 -20 9 16 9 31 0 42 -5 50 -22z m137 12
c-16 -7 -30 -7 -45 0 -20 9 -16 10 22 10 38 0 42 -1 23 -10z m132 -7 c-8 -9
-15 -24 -15 -33 0 -14 -4 -14 -34 4 -62 36 -61 45 4 45 55 0 59 -1 45 -16z
m115 8 c0 -11 -28 -10 -35 1 -3 6 4 9 15 8 11 -1 20 -5 20 -9z m163 -8 c-21
-19 -77 -44 -68 -30 3 5 -3 18 -13 28 -18 18 -17 19 40 19 56 0 58 -1 41 -17z
m97 8 c0 -11 -48 -10 -54 1 -3 5 8 8 24 7 17 0 30 -4 30 -8z m60 2 c0 -5 -2
-10 -4 -10 -3 0 -8 5 -11 10 -3 6 -1 10 4 10 6 0 11 -4 11 -10z m57 -5 c-11
-7 -25 -11 -33 -8 -25 9 -15 20 19 21 29 1 30 -1 14 -13z m193 -38 c0 -47 -1
-49 -15 -31 -8 10 -15 24 -15 30 0 6 -11 17 -25 24 -35 19 -31 27 15 27 l40 0
0 -50z m-600 -11 c0 -32 -37 -59 -88 -66 -59 -7 -66 -4 -22 11 16 6 27 15 24
20 -3 5 9 9 26 9 35 0 49 22 29 47 -13 15 -12 15 9 4 12 -6 22 -18 22 -25z
m-211 7 c10 9 15 8 24 -4 7 -9 20 -18 28 -20 12 -3 8 -11 -17 -34 l-33 -31
-35 48 c-20 26 -36 50 -36 53 0 3 13 -1 29 -9 22 -12 31 -12 40 -3z m267 -5
c-1 -19 4 -23 29 -23 16 0 39 -9 50 -20 12 -11 33 -29 48 -40 16 -12 27 -31
29 -50 2 -16 9 -32 16 -35 9 -4 3 -17 -20 -43 -57 -65 -147 -55 -167 19 -12
45 -1 71 37 85 34 13 69 4 83 -22 11 -21 10 -21 -12 -5 -32 22 -76 21 -89 -3
-28 -53 -1 -96 62 -100 50 -3 78 25 78 79 0 62 -31 85 -120 92 -27 2 -37 9
-44 30 -7 19 -6 31 4 42 16 20 17 20 16 -6z m214 2 c5 8 12 12 15 8 3 -3 -7
-26 -22 -50 l-29 -45 -39 33 c-21 19 -36 34 -34 35 2 0 13 2 23 4 11 2 24 11
29 20 8 15 10 15 29 -1 16 -15 21 -16 28 -4z m90 10 c0 -5 -5 -10 -11 -10 -5
0 -7 5 -4 10 3 6 8 10 11 10 2 0 4 -4 4 -10z m151 -3 c43 -33 44 -88 3 -124
-25 -23 -74 -32 -74 -14 0 6 9 8 20 6 27 -5 60 28 60 58 0 58 -94 84 -132 37
-26 -32 -18 -87 17 -117 38 -33 111 -32 147 2 15 14 30 38 34 53 11 53 14 46
11 -35 -2 -64 -7 -88 -23 -110 -22 -31 -72 -59 -119 -68 -38 -7 -195 5 -195
15 0 4 23 10 50 13 37 5 58 2 80 -11 29 -16 31 -16 41 1 5 9 20 17 32 17 30 0
87 36 87 55 0 26 -4 29 -56 30 -67 2 -111 21 -130 56 -8 16 -18 29 -22 29 -5
0 -19 -23 -32 -51 -12 -28 -36 -67 -53 -86 -23 -26 -27 -37 -18 -42 9 -6 3
-10 -16 -14 -15 -3 -29 -4 -31 -3 -1 2 12 19 30 38 18 19 54 73 80 119 26 47
60 97 75 111 46 45 103 59 134 35z m-894 -16 c55 -26 68 -50 49 -96 -16 -38
-30 -49 -18 -12 5 12 7 28 6 35 -1 6 -2 17 -3 22 -2 16 -63 50 -90 50 -76 0
-81 -105 -6 -115 17 -2 32 -4 35 -4 3 -1 -2 -6 -10 -11 -40 -25 -100 21 -100
76 0 28 6 38 33 54 39 24 51 25 104 1z m150 -111 c15 -27 31 -50 34 -50 3 0
11 10 17 23 10 20 10 19 8 -11 -5 -45 28 -83 71 -84 40 -1 33 -18 -7 -18 -41
0 -82 39 -124 120 -42 80 -41 96 1 20z m14 -108 c5 -2 9 -11 9 -19 0 -14 -3
-13 -20 2 -30 27 -57 75 -65 115 -5 30 -1 26 31 -30 20 -36 40 -66 45 -68z
m200 102 c15 -19 14 -73 -2 -88 -9 -8 -10 -8 -6 0 4 7 4 25 1 42 -7 35 -42 55
-82 47 l-27 -5 29 13 c32 16 70 11 87 -9z m289 6 c-6 -11 -13 -20 -16 -20 -2
0 0 9 6 20 6 11 13 20 16 20 2 0 0 -9 -6 -20z m170 -94 c52 -14 53 -20 3 -17
-12 1 -26 -5 -31 -15 -10 -19 -32 -11 -32 12 0 18 -14 18 -51 -1 l-30 -16 23
45 c23 44 23 44 43 25 11 -10 45 -25 75 -33z m-915 34 c3 -5 1 -10 -4 -10 -6
0 -11 5 -11 10 0 6 2 10 4 10 3 0 8 -4 11 -10z m175 -30 c22 -42 15 -53 -14
-21 -17 19 -18 19 -47 -11 -21 -23 -29 -27 -29 -14 0 12 -10 16 -44 16 -25 0
-48 5 -51 11 -4 6 -1 10 6 8 44 -6 90 4 120 25 19 13 35 25 36 25 2 1 12 -17
23 -39z m-113 24 c-3 -3 -12 -4 -19 -1 -8 3 -5 6 6 6 11 1 17 -2 13 -5z m383
-48 c0 -2 -7 -7 -16 -10 -8 -3 -12 -2 -9 4 6 10 25 14 25 6z m77 -37 c18 -12
50 -21 69 -22 l36 -1 -53 -23 c-29 -13 -61 -30 -70 -39 -15 -13 -21 -12 -58
13 -23 15 -49 28 -57 29 -24 4 -30 14 -8 15 39 1 58 8 78 28 25 26 21 26 63 0z
m-302 -19 c36 0 65 12 58 24 -5 7 -2 7 8 -1 8 -7 26 -16 39 -21 17 -6 -5 -9
-75 -10 -55 -1 -113 -5 -129 -8 l-30 -6 29 24 c26 23 31 24 54 12 14 -8 35
-14 46 -14z"/>
<path d="M1578 744 c-11 -23 -10 -29 12 -46 23 -19 24 -19 44 1 17 17 18 24 8
46 -15 33 -49 33 -64 -1z"/>
<path d="M605 960 c-12 -13 -31 -20 -54 -20 -43 0 -101 -33 -102 -57 -1 -10
-2 -25 -3 -33 -1 -8 8 -25 19 -38 11 -13 16 -23 10 -22 -20 4 -34 0 -49 -16
-24 -23 -11 -34 28 -23 26 7 44 5 76 -7 39 -16 42 -16 55 2 14 18 14 17 15 -8
0 -16 -4 -29 -10 -29 -5 -1 -13 -2 -17 -3 -5 -1 -34 -8 -66 -16 -60 -14 -87
-34 -71 -50 6 -6 41 -1 95 14 l86 23 11 -29 c10 -28 10 -30 -10 -24 -12 3 -28
0 -35 -6 -10 -8 -13 -6 -13 8 0 16 -4 15 -25 -8 -20 -22 -25 -37 -25 -81 0
-30 -7 -73 -15 -96 -8 -22 -10 -41 -5 -41 19 0 49 40 55 74 7 33 9 34 33 25
32 -12 72 6 72 33 0 17 19 27 21 11 0 -5 2 -18 5 -30 3 -17 -8 -30 -49 -59
-58 -42 -77 -62 -77 -81 0 -23 18 -15 93 41 69 51 74 53 85 35 8 -13 9 -19 1
-19 -6 0 -17 -6 -24 -14 -12 -11 -11 -17 1 -35 9 -12 21 -18 27 -15 7 4 7 1
-1 -7 -11 -12 -15 -11 -27 5 -26 35 -46 9 -36 -46 0 -4 17 -10 36 -14 30 -5
33 -8 20 -21 -19 -19 -30 -62 -18 -74 5 -5 16 5 27 25 17 33 46 51 91 58 15 3
19 10 17 28 -3 21 -2 22 12 11 17 -14 14 -24 -32 -94 -26 -39 -36 -83 -21 -92
5 -4 31 30 59 73 l50 79 43 -21 43 -21 -48 -8 c-56 -10 -64 -33 -23 -71 24
-22 24 -22 2 -22 -27 1 -30 -32 -4 -48 13 -8 20 -8 26 2 6 10 11 5 20 -19 6
-18 14 -29 18 -25 4 3 21 41 39 84 18 42 36 76 41 75 34 -6 90 -15 101 -16 6
0 12 -12 12 -25 0 -24 -1 -24 -19 -8 -31 28 -72 25 -90 -6 -15 -26 -15 -29 5
-49 25 -24 64 -19 64 9 0 37 22 -8 25 -51 3 -54 14 -77 25 -56 5 8 14 49 20
92 7 43 17 80 23 84 6 4 8 0 4 -9 -7 -19 27 -53 43 -43 7 4 7 -1 -2 -14 -11
-18 -10 -23 4 -38 16 -15 18 -15 37 8 21 26 21 67 -1 80 -7 4 -10 11 -6 14 3
4 16 -3 27 -14 17 -17 21 -33 21 -84 0 -58 11 -87 32 -87 4 0 8 43 8 95 l0 95
53 0 c52 -1 52 -1 22 -14 -16 -8 -38 -20 -48 -27 -16 -13 -16 -16 -2 -37 9
-12 23 -22 31 -22 11 0 12 -4 3 -19 -7 -10 -9 -26 -6 -35 8 -20 47 -21 47 -1
0 21 13 19 28 -5 24 -39 32 -21 32 70 0 73 3 90 15 90 8 0 15 3 15 8 0 18 -41
28 -117 27 -70 0 -82 2 -86 17 -8 29 -27 20 -27 -12 0 -29 -1 -30 -23 -15 -22
14 -55 14 -77 0 -6 -4 -16 -2 -23 3 -7 6 -16 10 -22 11 -5 0 -23 2 -40 5 -16
3 -44 8 -60 10 -35 6 -154 53 -172 68 -7 6 -13 28 -13 50 0 21 -7 50 -16 64
-34 51 -121 73 -131 34 -4 -17 -8 -18 -20 -8 -9 7 -12 21 -8 35 8 32 -3 47
-21 32 -11 -9 -20 3 -49 65 -40 87 -40 89 -20 106 18 15 10 32 -12 28 -20 -4
-23 13 -23 145 0 59 -4 107 -9 107 -4 0 -16 -9 -26 -20z m-10 -50 c3 -5 2 -10
-4 -10 -5 0 -13 5 -16 10 -3 6 -2 10 4 10 5 0 13 -4 16 -10z m-88 -51 c0 -21
-3 -26 -9 -16 -4 9 -5 22 -2 31 9 23 11 20 11 -15z m63 1 c0 -5 -4 -10 -10
-10 -5 0 -10 5 -10 10 0 6 5 10 10 10 6 0 10 -4 10 -10z m35 -69 c2 -12 0 -19
-6 -16 -5 4 -9 16 -9 27 0 26 9 19 15 -11z m-55 9 c0 -5 -5 -10 -11 -10 -5 0
-7 5 -4 10 3 6 8 10 11 10 2 0 4 -4 4 -10z m66 -240 c15 0 19 -16 6 -24 -11
-7 -27 5 -41 31 -16 31 -14 41 5 15 8 -12 22 -22 30 -22z m276 -144 c21 -26
23 -56 4 -56 -10 0 -12 7 -8 22 4 16 -3 29 -29 51 -26 23 -28 26 -9 17 14 -7
33 -22 42 -34z m110 -237 l-9 -23 -11 21 c-10 18 -9 22 6 25 23 6 24 5 14 -23z
m528 -56 c0 -26 0 -26 -20 -8 -16 14 -17 20 -8 27 22 13 28 9 28 -19z"/>
<path d="M2537 953 c-4 -3 -7 -47 -7 -97 0 -58 -8 -118 -20 -164 -23 -87 -26
-92 -51 -92 -10 0 -19 -4 -19 -10 0 -5 5 -10 10 -10 18 0 10 -20 -29 -73 -58
-79 -138 -150 -159 -142 -79 33 -142 21 -166 -29 -9 -19 -13 -42 -10 -51 6
-15 4 -16 -14 -6 -30 16 -32 14 -21 -21 7 -24 6 -29 -3 -20 -16 16 -43 15 -58
-3 -8 -10 -18 -12 -29 -6 -9 5 -64 8 -124 7 -59 0 -107 2 -107 6 0 4 7 14 16
22 19 20 63 20 88 1 29 -22 49 -20 37 4 -13 24 -71 51 -109 51 -37 0 -72 -27
-75 -57 -1 -21 -9 -28 -30 -24 -17 3 0 -24 21 -34 20 -9 22 -17 22 -82 0 -80
6 -103 26 -103 11 0 14 20 14 90 l0 90 48 0 47 0 -37 -22 c-21 -12 -38 -29
-38 -39 0 -19 21 -39 44 -43 21 -3 55 -36 73 -69 8 -16 17 -26 20 -24 3 3 5
48 4 99 -1 93 -1 93 24 94 28 2 29 0 15 -26 -8 -15 -6 -24 10 -40 17 -17 24
-18 45 -8 28 12 45 4 28 -13 -18 -18 5 -59 32 -59 13 0 28 -7 35 -15 7 -8 18
-15 25 -15 15 0 14 14 -8 127 -12 63 -12 73 1 78 18 7 14 13 42 -60 24 -63 62
-110 68 -83 1 7 -11 47 -28 87 -16 41 -29 75 -28 76 2 1 20 12 41 25 l39 23
-21 -41 -21 -41 20 -14 c14 -10 36 -13 65 -9 32 3 52 0 70 -12 45 -30 44 -13
-2 67 -53 91 -48 120 11 63 45 -45 78 -48 76 -8 -4 62 -2 65 26 38 35 -32 72
-51 81 -42 4 4 -9 22 -28 41 -20 18 -42 48 -49 65 -10 23 -18 30 -32 27 -23
-6 -22 2 3 32 18 23 20 23 33 6 7 -10 33 -27 57 -39 34 -16 43 -26 42 -43 -3
-24 25 -40 33 -19 6 17 1 57 -10 75 -5 7 -29 22 -55 34 -50 22 -62 33 -54 54
8 19 24 16 95 -17 121 -57 136 -28 16 34 -59 31 -74 43 -71 57 5 18 6 18 30
-1 41 -32 79 -26 102 17 10 20 8 27 -20 54 -17 17 -28 33 -25 36 3 4 31 1 61
-6 53 -12 75 -9 75 9 0 9 -21 17 -61 25 -19 4 -49 12 -106 30 -10 3 -10 10 -1
32 7 15 13 30 15 32 2 2 12 -6 23 -19 19 -22 21 -22 45 -6 14 9 23 21 20 26
-4 6 -2 10 4 10 5 0 13 -4 16 -10 10 -16 32 -12 40 7 4 12 -1 24 -14 34 -20
16 -20 16 5 28 49 22 22 36 -71 37 -58 0 -90 5 -93 12 -4 13 -25 16 -35 5z
m53 -63 c0 -5 -5 -10 -11 -10 -5 0 -7 5 -4 10 3 6 8 10 11 10 2 0 4 -4 4 -10z
m64 1 c3 -4 1 -13 -4 -21 -7 -11 -11 -11 -24 3 -9 8 -16 17 -16 19 0 7 40 7
44 -1z m-262 -517 c-4 -33 -6 -34 -20 -20 -14 14 -14 17 3 36 10 11 19 20 20
20 0 0 -1 -16 -3 -36z m-172 -44 c-30 -23 -79 -45 -86 -38 -9 10 7 36 29 46
12 6 36 11 52 11 l30 1 -25 -20z m90 -85 c0 -9 -9 -15 -21 -15 -18 0 -19 2 -9
15 7 8 16 15 21 15 5 0 9 -7 9 -15z m-450 -121 c0 -24 -1 -24 -17 -9 -14 14
-14 18 -2 26 19 12 19 12 19 -17z"/>
</g>
</svg>
